<svg xmlns="http://www.w3.org/2000/svg" viewBox="0 0 100 100">
  <defs>
    <radialGradient id="pumpkinGradient">
      <stop offset="0%" style="stop-color:#ff8c42;stop-opacity:1" />
      <stop offset="100%" style="stop-color:#ff6b35;stop-opacity:1" />
    </radialGradient>
  </defs>
  
  <!-- Pumpkin body -->
  <ellipse cx="50" cy="55" rx="35" ry="30" fill="url(#pumpkinGradient)"/>
  
  <!-- Pumpkin segments -->
  <path d="M 50 25 Q 45 55 50 85" stroke="#d45d2a" stroke-width="2" fill="none"/>
  <path d="M 50 25 Q 55 55 50 85" stroke="#d45d2a" stroke-width="2" fill="none"/>
  <path d="M 30 40 Q 35 55 30 75" stroke="#d45d2a" stroke-width="1.5" fill="none"/>
  <path d="M 70 40 Q 65 55 70 75" stroke="#d45d2a" stroke-width="1.5" fill="none"/>
  
  <!-- Stem -->
  <rect x="47" y="15" width="6" height="12" rx="2" fill="#5d4e37"/>
  
  <!-- Eyes -->
  <polygon points="35,45 40,45 38,52" fill="#2a2a2a"/>
  <polygon points="60,45 65,45 63,52" fill="#2a2a2a"/>
  
  <!-- Nose -->
  <polygon points="50,55 47,60 53,60" fill="#2a2a2a"/>
  
  <!-- Mouth -->
  <path d="M 35 65 L 38 70 L 42 65 L 45 70 L 50 65 L 55 70 L 58 65 L 62 70 L 65 65" 
        stroke="#2a2a2a" stroke-width="3" fill="none" stroke-linecap="round"/>
  
  <!-- Glow effect -->
  <ellipse cx="50" cy="55" rx="35" ry="30" fill="none" stroke="#ffa500" 
           stroke-width="1" opacity="0.3"/>
</svg>
